<svg version="1.1" xmlns="http://www.w3.org/2000/svg" xmlns:xlink="http://www.w3.org/1999/xlink" preserveAspectRatio="xMidYMid meet" viewBox="670 254 625 126"><g data-item-type="text" data-item="Business" id="logo__item--business" class="logo__item">
                <g class="logo__item__inner" transform="translate(802.484375 346.1195342336462) scale(2.102894658886957 2.102894658886957) rotate(0 0 0)">
                    <text data-part-id="logo__item--business" dy="0" dominant-baseline="auto" alignment-baseline="auto" font-family="Raleway" font-size="32px" fill="#51C8E7" letter-spacing="0" font-weight="normal" font-style="normal" data-font-family="Raleway" data-font-weight="normal" data-font-style="normal" data-ttf-url="/builder_assets/fontsttf/font-montserrat-bold-normal.ttf" data-font-filename="raleway-normal-normal">Universities app</text>
                </g>
            </g><g data-item-type="image" data-item="Image" data-logo-item="" id="logo__item--logo_0" class="logo__item">
    <g class="logo__item__inner" transform="translate(661.9009225071986 249) scale(0.9287925915979106 0.9287925915979106) rotate(0 0 0)">
        
<g>
	<polygon fill="#51C8E7" points="45.2,65.3 45.2,95.5 77.4,111.8 77.7,111.7 77.7,82" data-part-id="logo__item--logo_0__0"></polygon>
	<polygon fill="#00A896" points="77.7,111.7 109.5,95.5 77.7,111.7" data-part-id="logo__item--logo_0__1"></polygon>
	<polygon fill="#00A896" points="77.7,82 77.7,111.7 109.5,95.5 109.5,65.2 78.7,82.5" data-part-id="logo__item--logo_0__2"></polygon>
	<polygon points="26.4,111.5 73.7,138.8 73.7,117 45.3,100.6" data-part-id="logo__item--logo_0__3"></polygon>
	<polygon points="82.1,117 82.1,138.8 129.4,111.5 110.6,100.6" data-part-id="logo__item--logo_0__4"></polygon>
	<polygon points="114.7,93.4 133.6,104.2 133.6,51.7 114.7,62.3" data-part-id="logo__item--logo_0__5"></polygon>
	<polygon points="22.2,104.2 41.1,93.4 41.1,63.2 22.2,53.5" data-part-id="logo__item--logo_0__6"></polygon>
	<path fill="#240C0C" d="M77.2,9.6L18.9,42.5c0,0,0,0,0,0l-3.2,1.8l0,0L15,44.7l1.4,0.7l0,3.5l0,1.5l-0.1,13.2   c-1.3,0.8-3.1,2.9-3.4,7.6c0,0,1.2,1.2,4.6,1.2h0c0,0,0,0,0,0c3.4,0,4.6-1.1,4.6-1.1c-0.3-5.4-2.6-7.3-3.8-7.9l0.1-11.9l0-3.6   l0-1.5l1.3,0.7l28,14.4l30.1,15.5l1,0.5l28.4-15.9l28.4-15.9l4.6-2.6L77.2,9.6z" data-part-id="logo__item--logo_0__7"></path>
</g>

    </g>
</g></svg>