<svg width="30" height="17" viewBox="0 0 30 17" fill="none" xmlns="http://www.w3.org/2000/svg">
<path fill-rule="evenodd" clip-rule="evenodd" d="M29.1031 1.80946C29.1031 1.43817 28.6743 1.13721 28.1454 1.13721H2.27208C1.74313 1.13721 1.31435 1.43817 1.31435 1.80946V14.8655C1.31435 15.2367 1.74313 15.5377 2.27208 15.5377H28.1451C28.6743 15.5377 29.1031 15.2367 29.1031 14.8655V1.80946Z" stroke="#3EC6FF"/>
<path fill-rule="evenodd" clip-rule="evenodd" d="M8.51955 8.00267C9.91126 8.00267 11.0395 7.21166 11.0395 6.23591C11.0395 5.26016 9.91126 4.46916 8.51955 4.46916C7.12781 4.46916 5.9996 5.26016 5.9996 6.23591C5.9996 7.21166 7.12781 8.00267 8.51955 8.00267Z" stroke="#3EC6FF"/>
<path d="M7.33984 15.5377L15.6871 7.29355L19.1384 10.5588L23.5772 5.66478L29.1031 11.2992" stroke="#3EC6FF"/>
</svg>
